<svg xmlns="http://www.w3.org/2000/svg" viewBox="0 0 64 64">
  <defs>
    <linearGradient id="navy" x1="0" y1="0" x2="1" y2="1">
      <stop offset="0" stop-color="#1E3A8A"/>
      <stop offset="1" stop-color="#152C6B"/>
    </linearGradient>
  </defs>
  <rect width="64" height="64" rx="14" fill="url(#navy)"/>
  <g transform="translate(9.2 9.2) scale(1.9)" fill="none" stroke="#E7C873" stroke-width="1.7" stroke-linecap="round" stroke-linejoin="round">
    <path d="m16 16 3-8 3 8c-.87.65-1.92 1-3 1s-2.13-.35-3-1Z"/>
    <path d="m2 16 3-8 3 8c-.87.65-1.92 1-3 1s-2.13-.35-3-1Z"/>
    <path d="M7 21h10"/>
    <path d="M12 3v18"/>
    <path d="M3 7h2c2 0 5-1 7-2 2 1 5 2 7 2h2"/>
  </g>
</svg>
